<svg width="300" height="400" viewBox="0 0 300 400" fill="none" xmlns="http://www.w3.org/2000/svg">
<rect x="58" y="224" width="184" height="49" fill="url(#paint0_linear_75_1749)"/>
<rect width="111.62" height="111.62" rx="11.6" transform="matrix(0.877975 -0.478706 0.877975 0.478706 52 273.433)" fill="url(#paint1_linear_75_1749)"/>
<rect x="0.877975" width="110.62" height="110.62" rx="11.1" transform="matrix(0.877975 -0.478706 0.877975 0.478706 52.1071 224.854)" fill="white" stroke="#E5E7EB"/>
<rect x="120.5" y="193.5" width="59" height="59" rx="29.5" fill="white" stroke="#E5E7EB"/>
<path d="M139.777 220.035H134V237.831C134 238.194 134.294 238.488 134.657 238.488H163.67C164.033 238.488 164.327 238.194 164.327 237.831V226.454H158.551V232.054C158.551 232.417 158.256 232.712 157.893 232.712H140.434C140.071 232.712 139.777 232.417 139.777 232.054V220.035Z" fill="url(#paint2_linear_75_1749)"/>
<path d="M160.797 226.453H166.574V208.657C166.574 208.294 166.279 208 165.916 208H136.904C136.541 208 136.246 208.294 136.246 208.657V220.035H142.023V214.434C142.023 214.071 142.317 213.777 142.68 213.777H160.14C160.503 213.777 160.797 214.071 160.797 214.434V226.453Z" fill="url(#paint3_linear_75_1749)"/>
<rect x="58" y="175" width="184" height="49" fill="url(#paint4_linear_75_1749)"/>
<rect width="111.62" height="111.62" rx="11.6" transform="matrix(0.877975 -0.478706 0.877975 0.478706 52 224.433)" fill="url(#paint5_linear_75_1749)"/>
<rect x="0.877975" width="110.62" height="110.62" rx="11.1" transform="matrix(0.877975 -0.478706 0.877975 0.478706 52.1071 175.854)" fill="white" stroke="#E5E7EB"/>
<rect x="120.5" y="145.5" width="59" height="59" rx="29.5" fill="white" stroke="#E5E7EB"/>
<path d="M144.483 159L139.242 159.552L138.69 189.897C138.69 190.526 139.242 191 139.794 191H160.821C161.091 191 161.311 190.49 161.311 189.86V170.131H155.518V179.69C155.518 180.319 155.317 186.31 154.138 186.31H145.587C144.208 186.31 144.483 180.473 144.483 179.843V159Z" fill="url(#paint6_linear_75_1749)"/>
<path d="M134 180.517L134.276 186.034L165.172 186.31C165.724 186.31 166 186.034 166 185.482V164.179C166 163.909 165.49 163.689 164.86 163.689H145.131V169.482H154.69C155.319 169.482 161.31 169.683 161.31 170.862V179.413C161.31 180.792 155.472 180.517 154.843 180.517H134Z" fill="url(#paint7_linear_75_1749)"/>
<path d="M155.518 191H161.311V160.14C161.311 159.552 160.759 159 160.207 159H139.794C139.523 159 138.69 159.51 138.69 160.14L138.69 186.31H144.483V170.31C144.483 169.681 144.684 163.69 145.863 163.69H154.414C155.793 163.69 155.518 169.527 155.518 170.157V191Z" fill="url(#paint8_linear_75_1749)"/>
<path d="M166 169.483V163.69H134.828C134.198 163.69 134 164.247 134 164.518V185.483C134 185.754 134.198 186.311 134.828 186.311H155.517V180.518H145.31C144.926 180.518 142.546 180.518 140.748 180.518C139.611 180.518 138.69 179.596 138.69 178.458V171.543C138.69 170.406 139.611 169.483 140.748 169.483C142.495 169.483 144.777 169.483 145.157 169.483H166Z" fill="url(#paint9_linear_75_1749)"/>
<defs>
<linearGradient id="paint0_linear_75_1749" x1="198.671" y1="300.997" x2="94.6713" y2="248.997" gradientUnits="userSpaceOnUse">
<stop stop-color="#5DE079" stop-opacity="0.5"/>
<stop offset="1" stop-color="#75EA8E" stop-opacity="0.5"/>
</linearGradient>
<linearGradient id="paint1_linear_75_1749" x1="55.8102" y1="0" x2="55.8102" y2="111.62" gradientUnits="userSpaceOnUse">
<stop stop-color="#B9F4C5"/>
<stop offset="1" stop-color="#B9F4C5"/>
</linearGradient>
<linearGradient id="paint2_linear_75_1749" x1="140.238" y1="229.211" x2="157.831" y2="229.211" gradientUnits="userSpaceOnUse">
<stop stop-color="#5DE079"/>
<stop offset="1" stop-color="#75EA8E"/>
</linearGradient>
<linearGradient id="paint3_linear_75_1749" x1="160.576" y1="217.233" x2="142.359" y2="217.233" gradientUnits="userSpaceOnUse">
<stop stop-color="#5DE079"/>
<stop offset="1" stop-color="#75EA8E"/>
</linearGradient>
<linearGradient id="paint4_linear_75_1749" x1="198.671" y1="251.997" x2="94.6713" y2="199.997" gradientUnits="userSpaceOnUse">
<stop stop-color="#FC634F" stop-opacity="0.5"/>
<stop offset="1" stop-color="#FC634F" stop-opacity="0.79"/>
</linearGradient>
<linearGradient id="paint5_linear_75_1749" x1="55.8102" y1="0" x2="55.8102" y2="111.62" gradientUnits="userSpaceOnUse">
<stop stop-color="#FA8272"/>
<stop offset="1" stop-color="#F9ACA2"/>
</linearGradient>
<linearGradient id="paint6_linear_75_1749" x1="143.695" y1="174.913" x2="156.817" y2="174.913" gradientUnits="userSpaceOnUse">
<stop stop-color="#E5523F"/>
<stop offset="1" stop-color="#FB624E"/>
</linearGradient>
<linearGradient id="paint7_linear_75_1749" x1="149.913" y1="181.305" x2="149.913" y2="168.183" gradientUnits="userSpaceOnUse">
<stop stop-color="#E5523F"/>
<stop offset="1" stop-color="#FB624E"/>
</linearGradient>
<linearGradient id="paint8_linear_75_1749" x1="156.306" y1="175.087" x2="143.184" y2="175.087" gradientUnits="userSpaceOnUse">
<stop stop-color="#E5523F"/>
<stop offset="1" stop-color="#FB624E"/>
</linearGradient>
<linearGradient id="paint9_linear_75_1749" x1="150.087" y1="168.695" x2="150.087" y2="181.817" gradientUnits="userSpaceOnUse">
<stop stop-color="#E5523F"/>
<stop offset="1" stop-color="#FB624E"/>
</linearGradient>
</defs>
</svg>
