<svg width="500" height="134" viewBox="0 0 500 134" fill="none" xmlns="http://www.w3.org/2000/svg">
<g clip-path="url(#clip0_1185_507)">
<path d="M189.627 114.818V24.1641H204.595V63.0159L243.567 24.1641H262.065L225.493 60.2963L262.912 114.818H244.697L214.761 70.7863L204.595 80.8878V114.818H189.627Z" fill="#111827"/>
<path d="M298.965 116.374C292.093 116.374 285.974 114.993 280.609 112.23C275.337 109.381 271.195 105.453 268.183 100.445C265.17 95.4376 263.664 89.6098 263.664 82.9619C263.664 76.2275 265.123 70.3134 268.041 65.2195C271.054 60.1256 275.196 56.1541 280.467 53.305C285.833 50.4558 292.046 49.0312 299.107 49.0312C305.979 49.0312 311.956 50.4558 317.04 53.305C322.123 56.0678 326.077 59.7803 328.901 64.4425C331.725 69.1047 333.137 74.2418 333.137 79.8537C333.137 80.7171 333.09 81.6668 332.996 82.7028C332.996 83.6525 332.949 84.7318 332.855 85.9405H278.349C278.82 92.1568 281.032 96.9053 284.986 100.186C289.034 103.381 293.694 104.978 298.965 104.978C303.202 104.978 306.732 104.115 309.556 102.388C312.474 100.575 314.639 98.1572 316.051 95.1354H331.019C329.136 101.179 325.371 106.23 319.723 110.288C314.168 114.346 307.249 116.374 298.965 116.374ZM298.965 60.2983C293.976 60.2983 289.552 61.6797 285.692 64.4425C281.832 67.1189 279.479 71.1768 278.632 76.6161H318.169C317.887 71.6085 315.957 67.637 312.38 64.7015C308.803 61.766 304.331 60.2983 298.965 60.2983Z" fill="#111827"/>
<path d="M344.4 114.821V50.5859H357.815L359.086 64.3136C361.533 60.0831 364.922 56.7591 369.253 54.3416C373.677 51.8378 378.996 50.5859 385.209 50.5859V64.9611H381.114C376.972 64.9611 373.253 65.6087 369.959 66.9037C366.758 68.1124 364.169 70.2277 362.192 73.2495C360.31 76.185 359.368 78.7319 359.368 83.9985V114.821H344.4Z" fill="#111827"/>
<path d="M394.162 114.82V50.5853H407.435L408.565 61.8524C410.73 57.8808 413.884 54.7727 418.026 52.5279C422.262 50.1968 427.11 49.0312 432.57 49.0312C441.042 49.0312 447.679 51.4487 452.48 56.2836C457.375 61.1185 459.823 68.3277 459.823 77.9111V114.82H444.996V79.3357C444.996 66.9031 439.442 60.6868 428.334 60.6868C422.78 60.6868 418.167 62.4999 414.496 66.1261C410.918 69.7522 409.13 74.9325 409.13 81.6668V114.82H394.162Z" fill="#111827"/>
<path d="M483.003 40.8414L479.343 33.5398L475.65 40.8414H483.003ZM481.539 28.5586L491.852 49.195H487.261L484.965 44.6779H473.721L471.425 49.195H466.801L477.114 28.5586H481.539Z" fill="#75EA8E"/>
<path d="M499.999 28.5586V49.195H495.773V28.5586H499.999Z" fill="#75EA8E"/>
<path d="M25.4259 52.9707H0V131.3C0 132.897 1.29505 134.192 2.89258 134.192H130.593C132.191 134.192 133.486 132.897 133.486 131.3V81.2217H108.06V105.874C108.06 107.471 106.765 108.766 105.168 108.766H28.3185C26.721 108.766 25.4259 107.471 25.4259 105.874V52.9707Z" fill="url(#paint0_linear_1185_507)"/>
<path d="M117.947 81.2207H143.373V2.89165C143.373 1.29413 142.078 -0.000930786 140.48 -0.000930786L12.7796 -0.000930786C11.1821 -0.000930786 9.88705 1.29413 9.88705 2.89165V52.9697H35.313V28.3176C35.313 26.72 36.608 25.425 38.2055 25.425L115.055 25.425C116.652 25.425 117.947 26.72 117.947 28.3176V81.2207Z" fill="url(#paint1_linear_1185_507)"/>
</g>
<defs>
<linearGradient id="paint0_linear_1185_507" x1="27.4589" y1="93.3599" x2="104.893" y2="93.3599" gradientUnits="userSpaceOnUse">
<stop stop-color="#75EA8E"/>
<stop offset="1" stop-color="#5DE079"/>
</linearGradient>
<linearGradient id="paint1_linear_1185_507" x1="116.974" y1="40.6384" x2="36.794" y2="40.6384" gradientUnits="userSpaceOnUse">
<stop stop-color="#75EA8E"/>
<stop offset="1" stop-color="#5DE079"/>
</linearGradient>
<clipPath id="clip0_1185_507">
<rect width="500" height="134" fill="white"/>
</clipPath>
</defs>
</svg>
