<svg width="144" height="135" viewBox="0 0 144 135" fill="none" xmlns="http://www.w3.org/2000/svg">
<path d="M25.4259 52.9707H0V131.3C0 132.897 1.29505 134.192 2.89258 134.192H130.593C132.191 134.192 133.486 132.897 133.486 131.3V81.2217H108.06V105.874C108.06 107.471 106.765 108.766 105.168 108.766H28.3185C26.721 108.766 25.4259 107.471 25.4259 105.874V52.9707Z" fill="url(#paint0_linear_1050_503)"/>
<path d="M117.947 81.2207H143.373V2.89165C143.373 1.29413 142.078 -0.000931538 140.48 -0.000931538L12.7796 -0.000931538C11.1821 -0.000931538 9.88705 1.29413 9.88705 2.89165V52.9697H35.313V28.3176C35.313 26.72 36.608 25.425 38.2055 25.425L115.055 25.425C116.652 25.425 117.947 26.72 117.947 28.3176V81.2207Z" fill="url(#paint1_linear_1050_503)"/>
<defs>
<linearGradient id="paint0_linear_1050_503" x1="27.4589" y1="93.3599" x2="104.893" y2="93.3599" gradientUnits="userSpaceOnUse">
<stop stop-color="#75EA8E"/>
<stop offset="1" stop-color="#5DE079"/>
</linearGradient>
<linearGradient id="paint1_linear_1050_503" x1="116.974" y1="40.6384" x2="36.794" y2="40.6384" gradientUnits="userSpaceOnUse">
<stop stop-color="#75EA8E"/>
<stop offset="1" stop-color="#5DE079"/>
</linearGradient>
</defs>
</svg>
