<svg width="300" height="400" viewBox="0 0 300 400" fill="none" xmlns="http://www.w3.org/2000/svg">
<rect x="58" y="224" width="184" height="49" fill="url(#paint0_linear_75_1717)"/>
<rect width="111.62" height="111.62" rx="11.6" transform="matrix(0.877975 -0.478706 0.877975 0.478706 52 273.433)" fill="url(#paint1_linear_75_1717)"/>
<rect x="0.877975" width="110.62" height="110.62" rx="11.1" transform="matrix(0.877975 -0.478706 0.877975 0.478706 52.1071 224.854)" fill="white" stroke="#E5E7EB"/>
<rect x="120.5" y="193.5" width="59" height="59" rx="29.5" fill="white" stroke="#E5E7EB"/>
<path d="M139.777 220.035H134V237.831C134 238.194 134.294 238.488 134.657 238.488H163.67C164.033 238.488 164.327 238.194 164.327 237.831V226.454H158.551V232.054C158.551 232.417 158.256 232.712 157.893 232.712H140.434C140.071 232.712 139.777 232.417 139.777 232.054V220.035Z" fill="url(#paint2_linear_75_1717)"/>
<path d="M160.797 226.453H166.574V208.657C166.574 208.294 166.279 208 165.916 208H136.904C136.541 208 136.246 208.294 136.246 208.657V220.035H142.023V214.434C142.023 214.071 142.317 213.777 142.68 213.777H160.14C160.503 213.777 160.797 214.071 160.797 214.434V226.453Z" fill="url(#paint3_linear_75_1717)"/>
<defs>
<linearGradient id="paint0_linear_75_1717" x1="198.671" y1="300.997" x2="94.6713" y2="248.997" gradientUnits="userSpaceOnUse">
<stop stop-color="#5DE079" stop-opacity="0.5"/>
<stop offset="1" stop-color="#75EA8E" stop-opacity="0.5"/>
</linearGradient>
<linearGradient id="paint1_linear_75_1717" x1="55.8102" y1="0" x2="55.8102" y2="111.62" gradientUnits="userSpaceOnUse">
<stop stop-color="#B9F4C5"/>
<stop offset="1" stop-color="#B9F4C5"/>
</linearGradient>
<linearGradient id="paint2_linear_75_1717" x1="140.238" y1="229.211" x2="157.831" y2="229.211" gradientUnits="userSpaceOnUse">
<stop stop-color="#5DE079"/>
<stop offset="1" stop-color="#75EA8E"/>
</linearGradient>
<linearGradient id="paint3_linear_75_1717" x1="160.576" y1="217.233" x2="142.359" y2="217.233" gradientUnits="userSpaceOnUse">
<stop stop-color="#5DE079"/>
<stop offset="1" stop-color="#75EA8E"/>
</linearGradient>
</defs>
</svg>
